# xmcd
#
# Track frame offsets:
#	150
#	21250
#	38997
#	58215
#	76837
#	98235
#	111957
#	130605
#	149677
#	164302
#	186377
#	203900
#	223430
#	246055
#	262495
#
# Disc length: 3763
#
# Revision: 1
# Processed by: cddbd v1.5.1PL0 Copyright (c) Steve Scherf et al.
# Submitted via: ExactAudioCopy v0.95a3
# Normalized: r0:TDELIM( - )
#
DISCID=ed0eb10f
DTITLE=Various Artist - Private Music - Pioneer Sampler
DYEAR=1995
DGENRE=Blues
TTITLE0=The Fabulous Thunderbirds - Roll of the Dice
TTITLE1=A.J. Croce - That's Me in the Bar
TTITLE2=Willy Porter - Angry Words
TTITLE3=Susan Werner - St. Mary's of Regret
TTITLE4=Joy Askew - A World So Rare
TTITLE5=Dan Zanes - Rough Spot
TTITLE6=Chris Thomas - Kickin' True Blue
TTITLE7=Taj Mahal - Blues Ain't Nothin'
TTITLE8=The Blind Boys of Alabama - Rain
TTITLE9=Leo Kottke - Airproofing
TTITLE10=Dan Hicks - Up! Up! Up!
TTITLE11=Jennifer Warnes - Rock You Gently
TTITLE12=Etta James - Dont Go To Strangers
TTITLE13=Kenny Rankin - The Very Thought of You
TTITLE14=Toots Thielemans - OBI
EXTD=
EXTT0=from "Roll of the Dice"
EXTT1=from "That's Me in the Bar"
EXTT2=from "Dog Eared Dream"\n
EXTT3=from "Last of the Good Straight Girls"
EXTT4=from "Tender City"
EXTT5=from "Cool Down Time"
EXTT6=from "21st Century Blues"
EXTT7=from "Dancing the Blues"
EXTT8=from "I Brought Him With Me"
EXTT9=from "Live"
EXTT10=from "Shootin' Straight"
EXTT11=from "The Hunter"
EXTT12=from "Time After Time"
EXTT13=from "Professional Dreamer"
EXTT14=from "The Brazil Project"
PLAYORDER=
